<svg id="Layer_1" data-name="Layer 1" xmlns="http://www.w3.org/2000/svg" viewBox="0 0 107.78 57.33"><defs><style>.cls-1{fill:#fff;}</style></defs><path class="cls-1" d="M505.84,381.77c3.92-3.46,9.54-3.79,12.3-3.72.31-4.66,2-8.15,5-10.39,5.26-3.91,14.09-3.18,17.14-2.49,1.42-3,4-4.54,6-6-2.1-4.14-7.95-7.84-15.61-7.84a14,14,0,0,0-12.43,8.88s-17.76-5.33-17.76,10.65c0,0-14.2-1.77-14.2,10.65a11,11,0,0,0,7.14,9.69,14.71,14.71,0,0,0,5.54,1h2.79c0-.13,0-.23,0-.26C501.74,387.58,503.12,384.17,505.84,381.77Z" transform="translate(-486.28 -351.33)"/><path class="cls-1" d="M593.64,390.82a4,4,0,0,0-.15-.48c-3.15-9.44-11.09-10.55-16.21-9.63,0-3.59-.72-11.08-5.55-16.37-3.44-3.76-8.28-5.67-14.4-5.67a18.07,18.07,0,0,0-9.88,3.44,17.07,17.07,0,0,0-5.29,6.51c-3-.69-10.76-1.87-16,2-3,2.24-4.69,5.73-5,10.39-2.76-.07-8.38.26-12.3,3.72-2.72,2.4-4.1,5.81-4.1,10.14,0,0,0,.13,0,.26a14.06,14.06,0,0,0,9.14,12.27,18.52,18.52,0,0,0,6.94,1.23h59.43A13.52,13.52,0,0,0,591,403.43,14.84,14.84,0,0,0,593.64,390.82Zm-5.06,10.76a10.4,10.4,0,0,1-8.32,4.09H520.83a15.39,15.39,0,0,1-5.81-1,11.13,11.13,0,0,1-7.27-9.49c0-.14,0-.24,0-.26,0-3.43,1-6.07,3.07-7.88,2.91-2.58,7.27-3,9.73-3,1.12,0,1.84.08,1.86.08l.67.09a.92.92,0,0,0,1-.9v-.68c0-4.45,1.29-7.67,3.83-9.57,5.33-4,14.58-1.28,14.67-1.25l.21.06a1.26,1.26,0,0,0,1.54-.74l.08-.2a14.48,14.48,0,0,1,4.21-5.91,14.94,14.94,0,0,1,8.7-3.36c5.23,0,9.33,1.57,12.18,4.68,5.54,6.06,4.72,16.06,4.72,16.16l-.09,1a.85.85,0,0,0,1.11.88l.94-.31c.44-.15,10.9-3.44,14.45,7.22l.05.13,0,.12A11.81,11.81,0,0,1,588.58,401.58Z" transform="translate(-486.28 -351.33)"/></svg>