<svg id="Layer_1" data-name="Layer 1" xmlns="http://www.w3.org/2000/svg" viewBox="0 0 78.44 78.86"><defs><style>.cls-1{fill:#fff;}</style></defs><path class="cls-1" d="M536,418.49a22,22,0,1,1,22-22A22,22,0,0,1,536,418.49ZM536,377a19.51,19.51,0,1,0,19.51,19.51A19.53,19.53,0,0,0,536,377Z" transform="translate(-496.97 -357.06)"/><rect class="cls-1" x="37.77" width="2.49" height="14.53" rx="1.25"/><rect class="cls-1" x="63.92" y="38.18" width="14.53" height="2.49" rx="1.25"/><rect class="cls-1" x="553.71" y="374.48" width="14.53" height="2.49" rx="1.25" transform="translate(-607.25 91.37) rotate(-40)"/><rect class="cls-1" x="505.96" y="417.51" width="14.53" height="2.49" rx="1.25" transform="translate(-643.82 116.96) rotate(-44)"/><rect class="cls-1" x="558.89" y="410.41" width="2.49" height="14.53" rx="1.25" transform="translate(-616.83 221.23) rotate(-50)"/><rect class="cls-1" x="511.82" y="366.45" width="2.49" height="14.53" rx="1.25" transform="translate(-612.57 104.23) rotate(-44)"/><rect class="cls-1" y="38.18" width="14.53" height="2.49" rx="1.25"/><rect class="cls-1" x="37.77" y="64.33" width="2.49" height="14.53" rx="1.25"/></svg>