<svg id="Layer_1" data-name="Layer 1" xmlns="http://www.w3.org/2000/svg" viewBox="0 0 100.32 69.86"><defs><style>.cls-1{fill:#fff;}.cls-2{fill:none;}</style></defs><path class="cls-1" d="M507.76,409.47c0-.13-.08-.25-.15-.47-2-6-5.94-8.64-9.86-9.53a15,15,0,0,0-3.78-.36,13.19,13.19,0,0,0-1.57.11c-.24,0-.47,0-.7.09l-.3.05c0-.13,0-.27,0-.41-.08-3.72-.89-10.85-5.54-15.95a16.32,16.32,0,0,0-6-4.15,12.52,12.52,0,0,0-1.66-.59,22.94,22.94,0,0,0-6.77-.94,17.5,17.5,0,0,0-15.17,9.95c-3-.68-10.77-1.87-16,2-3,2.25-4.7,5.74-5,10.39-2.76-.07-8.39.27-12.31,3.73-2.71,2.4-4.09,5.81-4.09,10.13A14.06,14.06,0,0,0,428,426.1a18.52,18.52,0,0,0,6.94,1.22h59.43a13.49,13.49,0,0,0,10.68-5.24A14.81,14.81,0,0,0,507.76,409.47Zm-5.06,10.76a10.37,10.37,0,0,1-8.32,4.09H435a15.6,15.6,0,0,1-5.81-1,11.1,11.1,0,0,1-7.28-9.76c0-3.42,1-6.07,3.07-7.87,2.91-2.58,7.27-3,9.73-3a14.92,14.92,0,0,1,1.86.09l.67.08a.9.9,0,0,0,1-.9v-.67c0-4.46,1.29-7.68,3.83-9.58,5.32-4,14.58-1.27,14.67-1.25l.21.07a1.26,1.26,0,0,0,1.53-.75l.08-.2a14.51,14.51,0,0,1,12.92-9.27,20.25,20.25,0,0,1,5.63.74,12.8,12.8,0,0,1,1.65.56,13.57,13.57,0,0,1,4.89,3.39c3.79,4.14,4.61,10.12,4.74,13.52,0,.73,0,1.34,0,1.78s0,.84,0,.85l-.08,1a.84.84,0,0,0,1.11.88l.94-.31c.06,0,.33-.1.75-.2s.81-.18,1.34-.25c3.34-.46,9.74-.2,12.36,7.67l.05.14s0,.08,0,.12A11.82,11.82,0,0,1,502.7,420.23Z" transform="translate(-418.86 -357.97)"/><path class="cls-1" d="M491.76,370.09a15.31,15.31,0,0,0-13.54,8.17,14.3,14.3,0,0,0-1.14,2.8,12.8,12.8,0,0,1,1.65.56,12.46,12.46,0,0,1,1.15-2.77,13.57,13.57,0,1,1,14,19.94,12.33,12.33,0,0,1-1.49.15l-.63,0h-.38a13.18,13.18,0,0,1-3-.42c0,.73,0,1.34,0,1.78a14.63,14.63,0,0,0,3.05.37h.33c.22,0,.43,0,.64,0a13.29,13.29,0,0,0,1.91-.2,14.34,14.34,0,0,0,3.44-1,15.3,15.3,0,0,0-6-29.38Z" transform="translate(-418.86 -357.97)"/><path class="cls-2" d="M502.7,420.23a10.37,10.37,0,0,1-8.32,4.09H435a15.6,15.6,0,0,1-5.81-1,11.1,11.1,0,0,1-7.28-9.76c0-3.42,1-6.07,3.07-7.87,2.91-2.58,7.27-3,9.73-3a14.92,14.92,0,0,1,1.86.09l.67.08a.9.9,0,0,0,1-.9v-.67c0-4.46,1.29-7.68,3.83-9.58,5.32-4,14.58-1.27,14.67-1.25l.21.07a1.26,1.26,0,0,0,1.53-.75l.08-.2a14.51,14.51,0,0,1,12.92-9.27,20.25,20.25,0,0,1,5.63.74,12.8,12.8,0,0,1,1.65.56,13.57,13.57,0,0,1,4.89,3.39c3.79,4.14,4.61,10.12,4.74,13.52,0,.73,0,1.34,0,1.78s0,.84,0,.85l-.08,1a.84.84,0,0,0,1.11.88l.94-.31c.06,0,.33-.1.75-.2s.81-.18,1.34-.25c3.34-.46,9.74-.2,12.36,7.67l.05.14s0,.08,0,.12A11.82,11.82,0,0,1,502.7,420.23Z" transform="translate(-418.86 -357.97)"/><rect class="cls-1" x="72.03" width="1.73" height="10.11" rx="0.87"/><rect class="cls-1" x="90.22" y="26.56" width="10.11" height="1.73" rx="0.87"/><rect class="cls-1" x="504.08" y="370.08" width="10.11" height="1.73" rx="0.87" transform="translate(-538.19 56.04) rotate(-40)"/><rect class="cls-1" x="507.69" y="395.07" width="1.73" height="10.11" rx="0.87" transform="translate(-543.71 174.55) rotate(-50)"/><rect class="cls-1" x="474.94" y="364.49" width="1.73" height="10.11" rx="0.87" transform="translate(-542.03 76.28) rotate(-44)"/><polyline class="cls-2" points="73.54 69.86 73.54 69.36 73.54 66.36"/></svg>