<svg id="Layer_1" data-name="Layer 1" xmlns="http://www.w3.org/2000/svg" viewBox="0 0 89.32 66.5"><defs><style>.cls-1{fill:#fff;}</style></defs><path class="cls-1" d="M566.72,413.24H507.3a18.54,18.54,0,0,1-6.95-1.22,14.09,14.09,0,0,1-9.15-12.54c0-4.33,1.38-7.73,4.1-10.13,3.92-3.46,9.54-3.8,12.3-3.73.31-4.65,2-8.14,5-10.39,5.26-3.91,13-2.72,16-2a17.51,17.51,0,0,1,15.17-9.95c6.12,0,11,1.91,14.4,5.68,4.84,5.29,5.53,12.77,5.55,16.36,5.12-.92,13.06.19,16.21,9.64a3.91,3.91,0,0,1,.15.47A14.84,14.84,0,0,1,577.41,408,13.52,13.52,0,0,1,566.72,413.24ZM507,388.62c-2.46,0-6.81.41-9.73,3-2,1.8-3.07,4.45-3.07,7.87a11.12,11.12,0,0,0,7.28,9.75,15.45,15.45,0,0,0,5.82,1h59.42a10.4,10.4,0,0,0,8.33-4.09,11.79,11.79,0,0,0,2.14-10,.93.93,0,0,0,0-.13l0-.13c-3.56-10.65-14-7.36-14.46-7.22l-.94.31a.85.85,0,0,1-1.11-.88l.09-1c0-.1.82-10.1-4.72-16.15-2.85-3.11-7-4.69-12.18-4.69a14.5,14.5,0,0,0-12.91,9.27l-.08.2a1.28,1.28,0,0,1-1.54.75l-.2-.07c-.1,0-9.35-2.72-14.68,1.25-2.54,1.9-3.83,5.12-3.83,9.58v.67a.9.9,0,0,1-1,.9l-.67-.08A14.74,14.74,0,0,0,507,388.62Z" transform="translate(-491.2 -363.24)"/><rect class="cls-1" x="58.54" y="59.5" width="15" height="2" rx="1"/><rect class="cls-1" x="22.54" y="64.5" width="15" height="2" rx="1"/><rect class="cls-1" x="39.54" y="54.5" width="36.87" height="2" rx="1"/><rect class="cls-1" x="17.54" y="59.5" width="36" height="2" rx="1"/><rect class="cls-1" x="41.54" y="64.5" width="28" height="2" rx="1"/><rect class="cls-1" x="15.12" y="54.5" width="19.43" height="2" rx="1"/></svg>