<svg id="Layer_1" data-name="Layer 1" xmlns="http://www.w3.org/2000/svg" viewBox="0 0 89.32 81.12"><defs><style>.cls-1{fill:#fff;}</style></defs><path class="cls-1" d="M551.68,357.25l1.31.55A10.06,10.06,0,0,0,551.68,357.25ZM571,378.31l1.64.61A13,13,0,0,0,571,378.31Z" transform="translate(-491.2 -355.93)"/><path class="cls-1" d="M580.1,388.08c0-.13-.08-.25-.15-.47-1.55-4.66-4.28-7.29-7.25-8.65h0l-.09,0-1.64-.61a15.88,15.88,0,0,0-7.22-.34c0-3.59-.72-11.07-5.55-16.36a16.2,16.2,0,0,0-4.93-3.68l-.16-.08-.11-.05-1.31-.55-.06,0a.49.49,0,0,0-.17-.06,22.22,22.22,0,0,0-7.66-1.24,17.5,17.5,0,0,0-15.17,9.95c-3-.68-10.77-1.87-16,2-3,2.25-4.7,5.74-5,10.39-2.76-.07-8.39.27-12.31,3.73-2.71,2.4-4.09,5.81-4.09,10.13a14.06,14.06,0,0,0,9.15,12.54,18.52,18.52,0,0,0,6.94,1.22h59.43a13.49,13.49,0,0,0,10.68-5.24A14.81,14.81,0,0,0,580.1,388.08ZM575,398.84a10.37,10.37,0,0,1-8.32,4.09H507.29a15.6,15.6,0,0,1-5.81-1,11.1,11.1,0,0,1-7.28-9.76c0-3.42,1-6.07,3.07-7.87,2.91-2.58,7.27-3,9.73-3a14.92,14.92,0,0,1,1.86.09l.67.08a.9.9,0,0,0,1-.9v-.67c0-4.46,1.29-7.68,3.83-9.58,5.32-4,14.58-1.27,14.67-1.25l.21.07a1.26,1.26,0,0,0,1.53-.75l.08-.2a14.51,14.51,0,0,1,12.92-9.27,20.37,20.37,0,0,1,5.28.64h0l0,0c.14,0,.45.13.76.23a9.25,9.25,0,0,1,.93.32,13.52,13.52,0,0,1,5.12,3.48c5.55,6.05,4.73,16.05,4.72,16.15l-.08,1a.84.84,0,0,0,1.11.88l.94-.31a14.34,14.34,0,0,1,5.16-.54h0a10.81,10.81,0,0,1,2.43.46c2.66.83,5.36,2.84,6.85,7.3l0,.14s0,.08,0,.12A11.82,11.82,0,0,1,575,398.84Z" transform="translate(-491.2 -355.93)"/><path class="cls-1" d="M566.21,413.43a1.51,1.51,0,0,1-.59,1l-9.49,8.74a1.55,1.55,0,0,1-.89.29,1.5,1.5,0,0,1-.89-2.71l7.54-7.29Z" transform="translate(-491.2 -355.93)"/><path class="cls-1" d="M523.07,437.05a1.54,1.54,0,0,1-1.08-.48,1.51,1.51,0,0,1,.07-2.12l7.72-7,1.43-1.19a1.49,1.49,0,0,1,2.11.19c.53.63.06,1.44-.58,2l-6.31,6.05-2.32,2.16A1.49,1.49,0,0,1,523.07,437.05Z" transform="translate(-491.2 -355.93)"/><path class="cls-1" d="M548.8,413.43l-10.16,9.42a1.51,1.51,0,0,1-2.12-.16,1.5,1.5,0,0,1,.16-2.12l7.5-7.14Z" transform="translate(-491.2 -355.93)"/><path class="cls-1" d="M510.52,427.6a1.5,1.5,0,0,1-1.13-2.61l4-3.6a1.5,1.5,0,0,1,2,2.24l-4,3.59A1.49,1.49,0,0,1,510.52,427.6Z" transform="translate(-491.2 -355.93)"/><path class="cls-1" d="M545.52,432.6a1.5,1.5,0,0,1-1.13-2.61l4-3.6a1.5,1.5,0,0,1,2,2.24l-4,3.59A1.49,1.49,0,0,1,545.52,432.6Z" transform="translate(-491.2 -355.93)"/><path class="cls-1" d="M527.59,412.43a1.12,1.12,0,0,1-.18.2l-6,5.6a1.52,1.52,0,0,1-2.12-.12,1.51,1.51,0,0,1-.13-1.83,1.37,1.37,0,0,1,.25-.29l3.83-3.56Z" transform="translate(-491.2 -355.93)"/><path class="cls-1" d="M506.72,413.43l-6.61,4.72a1.49,1.49,0,0,1-2.09-.35,1.49,1.49,0,0,1,.35-2.09l3.37-2.28Z" transform="translate(-491.2 -355.93)"/></svg>