<svg id="Layer_1" data-name="Layer 1" xmlns="http://www.w3.org/2000/svg" viewBox="0 0 107.78 87.45"><defs><style>.cls-1{fill:#fff;}</style></defs><path class="cls-1" d="M501.53,383.2c3.92-3.46,9.54-3.79,12.3-3.72.31-4.66,2-8.15,5-10.39,5.26-3.92,14.09-3.18,17.14-2.5,1.42-3,4-4.54,6-6-2.09-4.14-8-7.83-15.61-7.83a14,14,0,0,0-12.43,8.88s-17.75-5.33-17.75,10.65c0,0-14.21-1.78-14.21,10.65a11,11,0,0,0,7.14,9.69,14.9,14.9,0,0,0,5.54,1h2.79c0-.13,0-.23,0-.26C497.43,389,498.81,385.6,501.53,383.2Z" transform="translate(-481.97 -352.76)"/><path class="cls-1" d="M589.33,392.25a4,4,0,0,0-.15-.48c-3.15-9.45-11.09-10.56-16.21-9.63,0-3.6-.71-11.08-5.55-16.37-3.44-3.77-8.28-5.68-14.4-5.68a18,18,0,0,0-9.88,3.45,17.22,17.22,0,0,0-5.29,6.5c-3.05-.68-10.76-1.87-16,2-3,2.24-4.69,5.73-5,10.39-2.76-.07-8.38.26-12.3,3.72-2.72,2.4-4.1,5.81-4.1,10.13,0,0,0,.13,0,.26a14.06,14.06,0,0,0,9.14,12.28,18.52,18.52,0,0,0,6.94,1.22H576a13.52,13.52,0,0,0,10.69-5.24A14.81,14.81,0,0,0,589.33,392.25ZM584.28,403a10.4,10.4,0,0,1-8.33,4.09H516.52a15.63,15.63,0,0,1-5.81-1,11.11,11.11,0,0,1-7.26-9.5c0-.13,0-.23,0-.26,0-3.42,1-6.07,3.07-7.87,2.92-2.58,7.27-3,9.73-3a17.5,17.5,0,0,1,1.86.09l.67.08a.9.9,0,0,0,1-.9v-.67c0-4.46,1.29-7.68,3.83-9.57,5.33-4,14.58-1.28,14.68-1.25l.2.06a1.27,1.27,0,0,0,1.54-.74l.08-.2a14.58,14.58,0,0,1,4.21-5.91,14.91,14.91,0,0,1,8.7-3.37c5.23,0,9.33,1.58,12.18,4.69,5.54,6.06,4.73,16.06,4.72,16.16l-.09,1a.85.85,0,0,0,1.11.88l.94-.3c.44-.15,10.9-3.44,14.45,7.22l0,.13s0,.08,0,.12A11.78,11.78,0,0,1,584.28,403Z" transform="translate(-481.97 -352.76)"/><path class="cls-1" d="M578.44,416.59a1.51,1.51,0,0,1-.59,1l-9.49,8.74a1.55,1.55,0,0,1-.89.29,1.5,1.5,0,0,1-.89-2.71l7.54-7.29Z" transform="translate(-481.97 -352.76)"/><path class="cls-1" d="M535.3,440.21a1.49,1.49,0,0,1-1-2.59l7.71-7,1.43-1.18a1.5,1.5,0,0,1,2.11.18c.54.64.06,1.45-.58,2l-6.31,6.05-2.32,2.17A1.46,1.46,0,0,1,535.3,440.21Z" transform="translate(-481.97 -352.76)"/><path class="cls-1" d="M561,416.59,550.87,426a1.51,1.51,0,0,1-2.12-.16,1.5,1.5,0,0,1,.16-2.12l7.5-7.14Z" transform="translate(-481.97 -352.76)"/><path class="cls-1" d="M522.75,430.77a1.5,1.5,0,0,1-1.13-2.62l4-3.59a1.5,1.5,0,0,1,2,2.24l-4,3.59A1.49,1.49,0,0,1,522.75,430.77Z" transform="translate(-481.97 -352.76)"/><path class="cls-1" d="M557.75,435.77a1.5,1.5,0,0,1-1.13-2.62l4-3.59a1.5,1.5,0,0,1,2,2.24l-4,3.59A1.49,1.49,0,0,1,557.75,435.77Z" transform="translate(-481.97 -352.76)"/><path class="cls-1" d="M539.82,415.59a1.12,1.12,0,0,1-.18.2l-6,5.6a1.52,1.52,0,0,1-2.12-.12,1.51,1.51,0,0,1-.13-1.83,1.37,1.37,0,0,1,.25-.29l3.83-3.56Z" transform="translate(-481.97 -352.76)"/><path class="cls-1" d="M519,416.59l-6.61,4.72a1.49,1.49,0,0,1-2.09-.35,1.49,1.49,0,0,1,.35-2.09l3.37-2.28Z" transform="translate(-481.97 -352.76)"/></svg>