<svg id="Layer_1" data-name="Layer 1" xmlns="http://www.w3.org/2000/svg" viewBox="0 0 89.32 75.5"><defs><style>.cls-1{fill:#fff;}</style></defs><path class="cls-1" d="M566.72,408.68H507.3a18.54,18.54,0,0,1-6.95-1.22,14.08,14.08,0,0,1-9.15-12.54c0-4.32,1.38-7.73,4.1-10.13,3.92-3.46,9.54-3.8,12.3-3.73.31-4.65,2-8.14,5-10.39,5.26-3.91,13-2.72,16-2a17.51,17.51,0,0,1,15.17-9.95c6.12,0,11,1.91,14.4,5.68,4.84,5.29,5.53,12.77,5.55,16.36,5.12-.92,13.06.19,16.21,9.64a3.91,3.91,0,0,1,.15.47,14.84,14.84,0,0,1-2.69,12.61A13.52,13.52,0,0,1,566.72,408.68ZM507,384.06c-2.46,0-6.81.41-9.73,3-2,1.8-3.07,4.45-3.07,7.87a11.14,11.14,0,0,0,7.28,9.76,15.65,15.65,0,0,0,5.82,1h59.42a10.4,10.4,0,0,0,8.33-4.09,11.79,11.79,0,0,0,2.14-10,.56.56,0,0,0,0-.12l0-.14c-3.56-10.65-14-7.36-14.46-7.22l-.94.31a.85.85,0,0,1-1.11-.88l.09-1c0-.1.82-10.1-4.72-16.15-2.85-3.11-7-4.69-12.18-4.69A14.5,14.5,0,0,0,530.88,371l-.08.2a1.28,1.28,0,0,1-1.54.75l-.2-.07c-.1,0-9.35-2.71-14.68,1.25-2.54,1.9-3.83,5.12-3.83,9.58v.67a.9.9,0,0,1-1,.9l-.67-.08A14.74,14.74,0,0,0,507,384.06Z" transform="translate(-491.2 -358.68)"/><path class="cls-1" d="M528.36,415l1-1.44a.57.57,0,0,1,1,.34l0,1.75a.56.56,0,0,0,.76.56l1.66-.59a.58.58,0,0,1,.65.9l-1.07,1.39a.57.57,0,0,0,.29.9l1.68.49a.58.58,0,0,1,0,1.11l-1.68.49a.58.58,0,0,0-.29.91l1.07,1.39a.57.57,0,0,1-.65.89l-1.66-.59a.57.57,0,0,0-.76.56l0,1.76a.58.58,0,0,1-1,.34l-1-1.45a.58.58,0,0,0-1,0l-1,1.45a.58.58,0,0,1-1-.34l0-1.76a.58.58,0,0,0-.77-.56l-1.65.59a.57.57,0,0,1-.65-.89l1.07-1.39a.58.58,0,0,0-.29-.91l-1.69-.49a.58.58,0,0,1,0-1.11l1.69-.49a.57.57,0,0,0,.29-.9l-1.07-1.39a.58.58,0,0,1,.65-.9l1.65.59a.57.57,0,0,0,.77-.56l0-1.75a.57.57,0,0,1,1-.34l1,1.44A.57.57,0,0,0,528.36,415Z" transform="translate(-491.2 -358.68)"/><path class="cls-1" d="M544.8,415.86l.73-1.05a.42.42,0,0,1,.76.25l0,1.27a.42.42,0,0,0,.56.41l1.2-.43a.43.43,0,0,1,.48.66l-.78,1a.42.42,0,0,0,.21.66l1.23.36a.42.42,0,0,1,0,.8l-1.23.37a.42.42,0,0,0-.21.66l.78,1a.42.42,0,0,1-.48.65l-1.2-.43a.42.42,0,0,0-.56.41l0,1.28a.42.42,0,0,1-.76.25l-.73-1.06a.42.42,0,0,0-.69,0l-.72,1.06a.42.42,0,0,1-.77-.25l0-1.28a.42.42,0,0,0-.56-.41l-1.21.43a.42.42,0,0,1-.47-.65l.78-1a.42.42,0,0,0-.22-.66l-1.22-.37a.42.42,0,0,1,0-.8l1.22-.36a.42.42,0,0,0,.22-.66l-.78-1a.42.42,0,0,1,.47-.66l1.21.43a.42.42,0,0,0,.56-.41l0-1.27a.42.42,0,0,1,.77-.25l.72,1.05A.41.41,0,0,0,544.8,415.86Z" transform="translate(-491.2 -358.68)"/><path class="cls-1" d="M538,428.08l.53-.77a.3.3,0,0,1,.56.18l0,.94a.31.31,0,0,0,.41.3l.88-.32a.31.31,0,0,1,.35.48l-.57.74a.32.32,0,0,0,.15.49l.9.26a.31.31,0,0,1,0,.59l-.9.27a.31.31,0,0,0-.15.48l.57.74a.31.31,0,0,1-.35.48l-.88-.31a.3.3,0,0,0-.41.3l0,.93a.31.31,0,0,1-.56.19l-.53-.78a.31.31,0,0,0-.51,0l-.53.78a.31.31,0,0,1-.56-.19l0-.93a.31.31,0,0,0-.41-.3l-.89.31a.31.31,0,0,1-.34-.48l.57-.74a.31.31,0,0,0-.16-.48l-.9-.27a.31.31,0,0,1,0-.59l.9-.26a.32.32,0,0,0,.16-.49l-.57-.74a.31.31,0,0,1,.34-.48l.89.32a.31.31,0,0,0,.41-.3l0-.94a.31.31,0,0,1,.56-.18l.53.77A.31.31,0,0,0,538,428.08Z" transform="translate(-491.2 -358.68)"/></svg>