<svg id="Layer_1" data-name="Layer 1" xmlns="http://www.w3.org/2000/svg" viewBox="0 0 107.78 80.83"><defs><style>.cls-1{fill:#fff;}</style></defs><path class="cls-1" d="M501.53,386.51c3.92-3.46,9.54-3.79,12.3-3.72.3-4.66,2-8.15,5-10.39,5.26-3.91,14.09-3.18,17.14-2.49,1.42-3,4-4.54,6-6-2.1-4.14-8-7.84-15.62-7.84A14,14,0,0,0,513.93,365s-17.76-5.33-17.76,10.65c0,0-14.2-1.77-14.2,10.65a11,11,0,0,0,7.14,9.69,14.71,14.71,0,0,0,5.54,1h2.79c0-.13,0-.24,0-.27C497.43,392.32,498.81,388.91,501.53,386.51Z" transform="translate(-481.97 -356.07)"/><path class="cls-1" d="M589.33,395.56c0-.13-.08-.25-.15-.47-3.15-9.45-11.1-10.56-16.21-9.64,0-3.59-.72-11.07-5.55-16.36-3.44-3.77-8.29-5.68-14.4-5.68a18,18,0,0,0-9.88,3.45,17,17,0,0,0-5.29,6.5c-3.05-.68-10.77-1.87-16,2-3,2.25-4.7,5.74-5,10.39-2.76-.07-8.39.27-12.31,3.73-2.71,2.4-4.09,5.81-4.09,10.13,0,0,0,.13,0,.26a14.08,14.08,0,0,0,9.14,12.28,18.52,18.52,0,0,0,6.94,1.22H532l5-3.5-20.45.5a15.6,15.6,0,0,1-5.81-1,11.14,11.14,0,0,1-7.27-9.5c0-.13,0-.23,0-.26,0-3.42,1-6.07,3.07-7.87,2.91-2.58,7.27-3,9.73-3a14.92,14.92,0,0,1,1.86.09l.67.08a.9.9,0,0,0,1-.9v-.67c0-4.46,1.29-7.68,3.83-9.58,5.32-4,14.58-1.27,14.67-1.25l.21.07a1.26,1.26,0,0,0,1.53-.75l.08-.2a14.63,14.63,0,0,1,4.21-5.9,14.93,14.93,0,0,1,8.71-3.37c5.23,0,9.33,1.58,12.17,4.69,5.55,6,4.73,16,4.72,16.15l-.08,1a.84.84,0,0,0,1.11.88l.94-.31c.44-.14,10.9-3.43,14.45,7.22l0,.14,0,.12a11.82,11.82,0,0,1-2.15,10,10.37,10.37,0,0,1-8.32,4.09l-19,.5-5,3,24-.5a13.49,13.49,0,0,0,10.68-5.24A14.81,14.81,0,0,0,589.33,395.56Z" transform="translate(-481.97 -356.07)"/><path class="cls-1" d="M543.64,420.65a1,1,0,0,0,.31-1,1,1,0,0,0-.69-.74l-8.16-2.45,12.22-9.59h5.45l-10.37,7.17a1,1,0,0,0-.42,1,1,1,0,0,0,.67.81l7.22,2.48-14.53,9.75Z" transform="translate(-481.97 -356.07)"/><path class="cls-1" d="M549.57,407.91l-7.74,5.35a2,2,0,0,0,.49,3.54l5.32,1.82-2.75,1.84a2,2,0,0,0,0-1,2,2,0,0,0-1.37-1.48l-6.31-1.89,10.42-8.19h1.91m6.4-2h0Zm0,0h-9l-14,11,10,3-19,17L552.1,418,543,414.91l13-9Z" transform="translate(-481.97 -356.07)"/></svg>