<svg id="Layer_1" data-name="Layer 1" xmlns="http://www.w3.org/2000/svg" xmlns:xlink="http://www.w3.org/1999/xlink" viewBox="0 0 212.67 226.85"><defs><linearGradient id="linear-gradient" x1="455.79" y1="360.21" x2="653.61" y2="360.21" gradientUnits="userSpaceOnUse"><stop offset="0" stop-color="#312783"/><stop offset="0.02" stop-color="#302b86"/><stop offset="0.21" stop-color="#284a9c"/><stop offset="0.4" stop-color="#225fab"/><stop offset="0.58" stop-color="#1e6db5"/><stop offset="0.74" stop-color="#1d71b8"/><stop offset="0.95" stop-color="#009fe3"/></linearGradient></defs><path d="M658,413.38a3,3,0,0,1-2.28-1.05l-4.45-5.21a20,20,0,0,0-31.6,1.56L618.07,411a3,3,0,0,1-4.92,0l-1.64-2.35a20,20,0,0,0-32.8,0L577.07,411a3,3,0,0,1-2.46,1.29h0a3,3,0,0,1-2.47-1.29l-1.64-2.36a20.07,20.07,0,0,0-15.69-8.55h-.74a20,20,0,0,0-16.36,8.56L536.07,411a3,3,0,0,1-4.92,0l-1.65-2.35a20,20,0,0,0-32.79,0L495.07,411a3,3,0,0,1-4.92,0l-1.65-2.35a20,20,0,0,0-30.65-2.59l-4.34,4.4a3,3,0,0,1-2.14.9,3.08,3.08,0,0,1-1.35-.32,3,3,0,0,1-1.61-3.14l.94-6.11a106.51,106.51,0,0,1,210.71,1.35l1,6.79a3,3,0,0,1-1.74,3.15A2.93,2.93,0,0,1,658,413.38ZM555,390.13a30.23,30.23,0,0,1,19.59,8.09,30,30,0,0,1,41,0,30.05,30.05,0,0,1,32-5.81A96.53,96.53,0,0,0,461.7,392a30.11,30.11,0,0,1,30.91,6.26,30,30,0,0,1,41,0,29.9,29.9,0,0,1,20.5-8.1Z" transform="translate(-448.37 -292.77)" style="fill:#1d1d1b"/><path d="M658,410.38l-4.45-5.21A23,23,0,0,0,617.25,407l-1.64,2.35L614,407a23,23,0,0,0-37.72,0l-1.64,2.36L573,407a23.07,23.07,0,0,0-18.06-9.83h-.8A23,23,0,0,0,535.25,407l-1.64,2.35L532,407a23,23,0,0,0-37.72,0l-1.64,2.35L491,407a23,23,0,0,0-35.26-3l-4.34,4.41.94-6.12a103.51,103.51,0,0,1,204.78,1.32ZM554.11,393.12H555a27.14,27.14,0,0,1,19.63,9.42,27,27,0,0,1,41,0,27,27,0,0,1,36.53-4.16,99.9,99.9,0,0,0-97.53-79.77c-46.87,0-87.81,33.58-97.38,78.95a27,27,0,0,1,35.38,5,27,27,0,0,1,41,0A27,27,0,0,1,554.11,393.12Z" transform="translate(-448.37 -292.77)" style="fill:#1d1d1b"/><path d="M556.37,318.62h-3.32a2,2,0,0,1-2-2.15l1.64-21.85a2,2,0,0,1,2-1.85h0a2,2,0,0,1,2,1.84l1.68,21.85a2,2,0,0,1-2,2.16Z" transform="translate(-448.37 -292.77)" style="fill:#1d1d1b"/><path d="M566.11,518.12c-4.6,0-8.14-1.28-10.52-3.79a11.36,11.36,0,0,1-3-7.82L553,395.12a2,2,0,0,1,2-2h0a2,2,0,0,1,2,2l-.36,111.49a7.31,7.31,0,0,0,1.92,5c1.6,1.66,4.15,2.51,7.58,2.51,2.83,0,4.93-.79,6.44-2.42,2.88-3.12,2.57-8.38,2.56-8.43v-.16l0-5.46a2,2,0,0,1,2-2h0a2,2,0,0,1,2,2l0,5.39c0,.87.27,7.15-3.63,11.36A12.2,12.2,0,0,1,566.11,518.12Z" transform="translate(-448.37 -292.77)" style="fill:#1d1d1b"/><path d="M566.11,519.62c-5,0-8.93-1.43-11.61-4.26a12.74,12.74,0,0,1-3.39-8.81V485.62a3.5,3.5,0,0,1,7,0v21a1.09,1.09,0,0,1,0,.18h0a5.9,5.9,0,0,0,1.53,3.8c1.31,1.34,3.49,2,6.48,2a6.89,6.89,0,0,0,5.34-1.94c2.41-2.6,2.17-7.25,2.17-7.29a2.81,2.81,0,0,1,0-.29l0-5.45a3.5,3.5,0,0,1,3.5-3.49h0a3.51,3.51,0,0,1,3.49,3.51l0,5.34c.07,1.3.22,7.84-4,12.43A13.86,13.86,0,0,1,566.11,519.62Z" transform="translate(-448.37 -292.77)" style="fill:#1d1d1b"/><path d="M653.61,402.23a24.62,24.62,0,0,0-38.91,1.92,24.62,24.62,0,0,0-40.39,0A24.55,24.55,0,0,0,555,393.62h-.85a24.55,24.55,0,0,0-20.2,10.54,24.62,24.62,0,0,0-40.39,0A24.62,24.62,0,0,0,455.79,401a100,100,0,0,1,197.82,1.27Z" transform="translate(-448.37 -292.77)" style="fill:url(#linear-gradient)"/><path d="M584.73,422.48a.25.25,0,0,0-.35,0l-2.76,2.92v-1.69l2.25-2.38a.25.25,0,1,0-.36-.34l-1.89,2v-1.3l1.5-1.59a.25.25,0,1,0-.36-.34l-1.14,1.2v-1.3l.88-.93a.25.25,0,1,0-.36-.34l-.52.55v-2.05a.25.25,0,0,0-.25-.25.25.25,0,0,0-.25.25v2.05l-.51-.55a.25.25,0,0,0-.35,0,.24.24,0,0,0,0,.35l.87.93V421l-1.13-1.2a.25.25,0,0,0-.36,0,.25.25,0,0,0,0,.35l1.5,1.59V423l-1.88-2a.25.25,0,0,0-.35,0,.24.24,0,0,0,0,.35l2.24,2.38v1.69l-2.75-2.92a.25.25,0,0,0-.35,0,.25.25,0,0,0,0,.36l3.11,3.29v3.07a.25.25,0,0,0,.25.25.25.25,0,0,0,.25-.25v-3.07l3.12-3.29A.26.26,0,0,0,584.73,422.48Z" transform="translate(-448.37 -292.77)" style="fill:#ededed"/><path d="M577,423.17a.26.26,0,0,0-.16.32l1.29,3.8-1.49-.79-1-3.1a.25.25,0,0,0-.32-.15.23.23,0,0,0-.15.31l.88,2.6-1.16-.61-.7-2.07a.25.25,0,0,0-.32-.15.23.23,0,0,0-.15.31l.53,1.57-1.15-.61-.41-1.21a.25.25,0,0,0-.32-.15.23.23,0,0,0-.15.31l.24.71-1.81-.95a.25.25,0,0,0-.34.1.26.26,0,0,0,.11.34l1.81.95-.73.21a.24.24,0,0,0-.17.3.26.26,0,0,0,.3.18l1.24-.35,1.15.61-1.6.45a.24.24,0,0,0,.13.47l2.11-.58,1.16.61-2.65.74a.24.24,0,0,0-.17.3.26.26,0,0,0,.31.18l3.15-.88,1.49.79-3.86,1.07a.26.26,0,0,0-.18.31.25.25,0,0,0,.31.17l4.37-1.21,2.72,1.43a.24.24,0,0,0,.33-.1.25.25,0,0,0-.1-.34l-2.72-1.43-1.46-4.3A.25.25,0,0,0,577,423.17Z" transform="translate(-448.37 -292.77)" style="fill:#ededed"/><path d="M589.09,428.63a.24.24,0,0,0-.18-.29l-3.91-.89,1.45-.86,3.19.72a.25.25,0,1,0,.11-.48l-2.68-.61,1.13-.67,2.13.49a.25.25,0,1,0,.11-.49l-1.62-.36,1.13-.67,1.24.29a.25.25,0,0,0,.3-.19.25.25,0,0,0-.19-.3l-.73-.17,1.76-1a.25.25,0,0,0,.09-.34.26.26,0,0,0-.34-.09l-1.76,1.05.2-.73a.24.24,0,0,0-.17-.3.23.23,0,0,0-.3.17l-.36,1.22-1.12.67.46-1.6a.24.24,0,0,0-.17-.3.25.25,0,0,0-.31.17l-.6,2.1-1.13.66.76-2.64a.24.24,0,0,0-.17-.3.25.25,0,0,0-.31.17l-.9,3.14-1.46.86,1.11-3.86a.24.24,0,0,0-.17-.3.25.25,0,0,0-.31.17l-1.25,4.36L581.48,429a.25.25,0,0,0,.25.43l2.64-1.56,4.43,1A.24.24,0,0,0,589.09,428.63Z" transform="translate(-448.37 -292.77)" style="fill:#ededed"/><path d="M585.72,435.82a.25.25,0,0,0,.17-.31l-1.16-3.84,1.47.84.94,3.13a.25.25,0,0,0,.31.16.25.25,0,0,0,.17-.31l-.8-2.62,1.14.65.63,2.09a.25.25,0,0,0,.31.16.25.25,0,0,0,.17-.31l-.48-1.58,1.13.64.37,1.23a.25.25,0,1,0,.47-.15l-.21-.72,1.77,1a.25.25,0,1,0,.25-.43l-1.78-1,.73-.18a.25.25,0,0,0,.19-.3.25.25,0,0,0-.3-.18l-1.24.3-1.13-.65,1.61-.39a.25.25,0,0,0,.18-.3.25.25,0,0,0-.3-.18l-2.12.51-1.14-.65,2.67-.64a.25.25,0,0,0,.18-.3.24.24,0,0,0-.3-.18l-3.18.76-1.46-.84,3.9-.94a.25.25,0,1,0-.12-.48l-4.41,1.06-2.67-1.52a.25.25,0,0,0-.34.09.26.26,0,0,0,.1.34l2.66,1.53,1.31,4.34A.25.25,0,0,0,585.72,435.82Z" transform="translate(-448.37 -292.77)" style="fill:#ededed"/><path d="M578,436.3a.25.25,0,0,0,.35,0l2.76-2.92v1.69l-2.25,2.38a.25.25,0,1,0,.36.34l1.89-2v1.3l-1.5,1.59a.25.25,0,0,0,.36.34l1.14-1.2v1.3l-.88.93a.24.24,0,0,0,0,.35.25.25,0,0,0,.35,0l.52-.55v2.05a.25.25,0,1,0,.49,0v-2.05l.52.55a.25.25,0,0,0,.35,0,.24.24,0,0,0,0-.35l-.88-.93v-1.3l1.14,1.2a.25.25,0,1,0,.36-.34l-1.5-1.59v-1.3l1.89,2a.25.25,0,0,0,.36-.34l-2.25-2.38v-1.69l2.76,2.92a.25.25,0,0,0,.35,0,.25.25,0,0,0,0-.36l-3.12-3.29v-3.07a.25.25,0,1,0-.49,0v3.07l-3.12,3.29A.26.26,0,0,0,578,436.3Z" transform="translate(-448.37 -292.77)" style="fill:#ededed"/><path d="M573.7,430.07a.27.27,0,0,0,.2.3l3.93.79-1.43.9-3.21-.65a.25.25,0,0,0-.29.19.24.24,0,0,0,.19.29l2.69.55-1.11.69-2.14-.43a.24.24,0,0,0-.29.19.25.25,0,0,0,.19.3l1.63.33-1.11.68L571.7,434a.24.24,0,0,0-.29.19.25.25,0,0,0,.19.3l.74.15-1.74,1.08a.25.25,0,1,0,.26.42L572.6,435l-.19.73a.25.25,0,1,0,.48.12l.32-1.23,1.11-.69-.42,1.6a.25.25,0,0,0,.48.13l.55-2.12,1.12-.69-.7,2.66a.25.25,0,1,0,.48.12l.83-3.16,1.43-.89-1,3.88a.24.24,0,0,0,.17.3.26.26,0,0,0,.31-.18l1.15-4.39,2.6-1.62a.25.25,0,0,0-.26-.42l-2.6,1.62-4.45-.9A.25.25,0,0,0,573.7,430.07Z" transform="translate(-448.37 -292.77)" style="fill:#ededed"/><path d="M620.86,445.94a.28.28,0,0,0-.38,0l-3,3.15v-1.83l2.43-2.56a.27.27,0,0,0,0-.38.27.27,0,0,0-.37,0l-2,2.15v-1.41l1.62-1.71a.27.27,0,1,0-.39-.37l-1.23,1.3v-1.4l1-1a.26.26,0,0,0,0-.37.26.26,0,0,0-.38,0l-.56.59v-2.21a.27.27,0,1,0-.53,0v2.21l-.56-.59a.26.26,0,0,0-.38,0,.26.26,0,0,0,0,.37l1,1v1.4l-1.23-1.3a.27.27,0,0,0-.39.37l1.62,1.71v1.41l-2-2.15a.27.27,0,0,0-.39.37l2.43,2.56v1.83L614,446a.27.27,0,0,0-.37,0,.27.27,0,0,0,0,.38l3.37,3.56v3.31a.27.27,0,1,0,.53,0v-3.31l3.36-3.56A.26.26,0,0,0,620.86,445.94Z" transform="translate(-448.37 -292.77)" style="fill:#ededed"/><path d="M612.56,446.69a.26.26,0,0,0-.17.34l1.39,4.09-1.61-.85L611,446.93a.27.27,0,0,0-.51.18l1,2.8-1.25-.66-.76-2.23a.26.26,0,1,0-.5.17l.57,1.69-1.24-.65-.44-1.31a.28.28,0,0,0-.34-.17.27.27,0,0,0-.17.34l.26.77-2-1a.28.28,0,0,0-.37.11.29.29,0,0,0,.12.37l2,1-.78.21a.27.27,0,0,0,.14.52l1.33-.37,1.24.66-1.72.48a.27.27,0,0,0-.19.33.27.27,0,0,0,.33.18l2.27-.63,1.25.66-2.85.8a.26.26,0,0,0-.19.33.27.27,0,0,0,.33.18l3.4-.94,1.61.85-4.17,1.16a.27.27,0,0,0,.15.51l4.71-1.31,2.93,1.55a.27.27,0,0,0,.36-.11.28.28,0,0,0-.11-.37l-2.93-1.54-1.57-4.64A.27.27,0,0,0,612.56,446.69Z" transform="translate(-448.37 -292.77)" style="fill:#ededed"/><path d="M625.57,452.58a.28.28,0,0,0-.2-.33l-4.22-.95,1.57-.93,3.44.78a.27.27,0,0,0,.32-.2.27.27,0,0,0-.2-.32l-2.89-.66,1.22-.72,2.29.53a.28.28,0,0,0,.33-.21.27.27,0,0,0-.21-.32l-1.74-.39,1.21-.72,1.34.31a.27.27,0,0,0,.32-.21.26.26,0,0,0-.2-.32l-.79-.18,1.9-1.12a.27.27,0,1,0-.27-.46l-1.9,1.12.22-.78a.27.27,0,0,0-.51-.15l-.38,1.33-1.21.71.49-1.71a.27.27,0,0,0-.18-.34.29.29,0,0,0-.34.19l-.65,2.26-1.21.72.82-2.84a.28.28,0,0,0-.19-.34.27.27,0,0,0-.33.19l-1,3.39-1.57.92,1.19-4.15a.27.27,0,1,0-.51-.15l-1.35,4.7-2.85,1.69a.26.26,0,0,0-.1.36.28.28,0,0,0,.37.1l2.85-1.69,4.77,1.09A.27.27,0,0,0,625.57,452.58Z" transform="translate(-448.37 -292.77)" style="fill:#ededed"/><path d="M621.94,460.32a.25.25,0,0,0,.17-.33l-1.25-4.15,1.59.91,1,3.38A.27.27,0,0,0,624,460l-.86-2.83,1.23.7.68,2.25a.25.25,0,0,0,.33.18.26.26,0,0,0,.18-.33l-.51-1.71,1.21.7.4,1.32a.27.27,0,0,0,.52-.16l-.24-.78,1.92,1.1a.26.26,0,0,0,.36-.1.25.25,0,0,0-.1-.36l-1.91-1.1.79-.19a.27.27,0,0,0,.19-.33.26.26,0,0,0-.32-.19l-1.34.32-1.22-.7,1.74-.42a.27.27,0,0,0,.2-.32.28.28,0,0,0-.33-.2l-2.29.55-1.22-.7,2.88-.69a.27.27,0,0,0,.19-.33.26.26,0,0,0-.32-.19l-3.43.82-1.58-.9,4.21-1a.26.26,0,0,0,.19-.32.27.27,0,0,0-.32-.2L620.45,455l-2.87-1.65a.29.29,0,0,0-.37.1.27.27,0,0,0,.1.37l2.88,1.65,1.41,4.68A.27.27,0,0,0,621.94,460.32Z" transform="translate(-448.37 -292.77)" style="fill:#ededed"/><path d="M613.55,460.84a.28.28,0,0,0,.38,0l3-3.15v1.83l-2.42,2.56a.27.27,0,0,0,0,.38.28.28,0,0,0,.38,0l2-2.15v1.41l-1.61,1.71a.26.26,0,0,0,0,.38.27.27,0,0,0,.38,0l1.22-1.3v1.4l-.94,1a.26.26,0,0,0,0,.37.26.26,0,0,0,.38,0l.55-.59v2.21a.27.27,0,1,0,.54,0v-2.21l.56.59a.26.26,0,0,0,.38,0,.27.27,0,0,0,0-.37l-.95-1v-1.4l1.23,1.3a.27.27,0,0,0,.38,0,.28.28,0,0,0,0-.38l-1.62-1.71v-1.41l2,2.15a.28.28,0,0,0,.38,0,.27.27,0,0,0,0-.38l-2.42-2.56v-1.83l3,3.15a.28.28,0,0,0,.38,0,.27.27,0,0,0,0-.38l-3.36-3.56v-3.31a.27.27,0,1,0-.54,0v3.31l-3.36,3.56A.28.28,0,0,0,613.55,460.84Z" transform="translate(-448.37 -292.77)" style="fill:#ededed"/><path d="M609,454.13a.28.28,0,0,0,.21.31l4.24.86-1.54,1-3.46-.7a.26.26,0,0,0-.31.21.26.26,0,0,0,.2.31l2.9.59-1.19.75-2.31-.47a.27.27,0,1,0-.11.52l1.75.36-1.19.74-1.35-.27a.27.27,0,0,0-.32.21.28.28,0,0,0,.21.31l.8.16-1.87,1.17a.27.27,0,0,0,.28.46l1.87-1.17-.2.78a.27.27,0,0,0,.19.33.27.27,0,0,0,.33-.19l.35-1.33,1.19-.75-.46,1.73a.27.27,0,0,0,.2.33.26.26,0,0,0,.32-.19l.6-2.28,1.2-.75-.75,2.87a.26.26,0,0,0,.19.32.27.27,0,0,0,.33-.19l.89-3.41,1.55-1-1.1,4.18a.27.27,0,1,0,.52.14l1.24-4.74,2.81-1.75a.27.27,0,1,0-.28-.45l-2.81,1.75-4.8-1A.27.27,0,0,0,609,454.13Z" transform="translate(-448.37 -292.77)" style="fill:#ededed"/><path d="M608,483.8a.21.21,0,0,0-.31,0l-2.43,2.57v-1.49l2-2.1a.22.22,0,1,0-.32-.3l-1.66,1.76v-1.16l1.32-1.4a.22.22,0,1,0-.32-.3l-1,1.06V481.3l.77-.82a.22.22,0,0,0,0-.31.23.23,0,0,0-.31,0l-.45.49v-1.81a.22.22,0,1,0-.44,0v1.81l-.46-.49a.23.23,0,0,0-.31,0,.22.22,0,0,0,0,.31l.78.82v1.15l-1-1.06a.22.22,0,0,0-.32.3l1.33,1.4v1.16l-1.67-1.76a.22.22,0,0,0-.31,0,.23.23,0,0,0,0,.31l2,2.1v1.49l-2.43-2.57a.22.22,0,0,0-.32,0,.22.22,0,0,0,0,.31l2.75,2.91v2.71a.22.22,0,0,0,.44,0V487l2.75-2.91A.22.22,0,0,0,608,483.8Z" transform="translate(-448.37 -292.77)" style="fill:#ededed"/><path d="M601.23,484.41a.22.22,0,0,0-.14.27l1.14,3.36-1.32-.7-.92-2.73a.22.22,0,0,0-.28-.14.22.22,0,0,0-.14.28l.78,2.29-1-.54-.62-1.82a.22.22,0,0,0-.28-.14.22.22,0,0,0-.14.28l.47,1.38-1-.53-.37-1.07a.21.21,0,0,0-.27-.14.22.22,0,0,0-.14.28l.21.63-1.59-.85a.23.23,0,0,0-.3.1.21.21,0,0,0,.09.29l1.6.85-.64.17a.22.22,0,0,0-.15.27.22.22,0,0,0,.27.16l1.08-.31,1,.54-1.41.39a.22.22,0,0,0-.15.27.22.22,0,0,0,.27.16l1.85-.52,1,.54-2.33.65a.22.22,0,1,0,.12.42l2.78-.77,1.32.69-3.41.95a.21.21,0,0,0-.15.27.22.22,0,0,0,.27.16l3.85-1.08L605,490a.24.24,0,0,0,.3-.09.23.23,0,0,0-.1-.3l-2.39-1.27-1.29-3.79A.22.22,0,0,0,601.23,484.41Z" transform="translate(-448.37 -292.77)" style="fill:#ededed"/><path d="M611.88,489.22a.22.22,0,0,0-.17-.26l-3.45-.78,1.29-.76,2.81.64a.22.22,0,0,0,.1-.43l-2.36-.54,1-.58,1.88.42a.21.21,0,0,0,.26-.16.23.23,0,0,0-.16-.27l-1.43-.32,1-.58,1.1.25a.22.22,0,0,0,.26-.17.21.21,0,0,0-.16-.26l-.65-.15,1.55-.92a.21.21,0,0,0,.08-.3.22.22,0,0,0-.3-.08l-1.55.92.18-.64a.22.22,0,1,0-.42-.12l-.31,1.09-1,.58.4-1.4a.23.23,0,0,0-.15-.28.22.22,0,0,0-.27.16l-.53,1.85-1,.58.67-2.32a.21.21,0,0,0-.15-.27.21.21,0,0,0-.27.15l-.8,2.77-1.28.76,1-3.4a.24.24,0,0,0-.15-.28.24.24,0,0,0-.28.16l-1.1,3.84-2.33,1.38a.22.22,0,0,0,.22.38l2.33-1.38,3.91.89A.22.22,0,0,0,611.88,489.22Z" transform="translate(-448.37 -292.77)" style="fill:#ededed"/><path d="M608.9,495.56a.22.22,0,0,0,.15-.27l-1-3.39,1.29.74.84,2.76a.21.21,0,0,0,.27.15.24.24,0,0,0,.15-.28l-.7-2.31,1,.57.56,1.85a.21.21,0,0,0,.27.14.23.23,0,0,0,.15-.27l-.43-1.4,1,.57.33,1.08a.22.22,0,0,0,.27.15.24.24,0,0,0,.15-.28l-.2-.63,1.57.89a.21.21,0,0,0,.3-.08.23.23,0,0,0-.08-.3l-1.57-.89.65-.16a.22.22,0,1,0-.11-.43l-1.09.27-1-.57,1.42-.35a.22.22,0,0,0-.1-.42l-1.87.45-1-.57,2.36-.57a.23.23,0,0,0,.16-.27.22.22,0,0,0-.27-.16l-2.8.68-1.29-.74,3.44-.83a.23.23,0,0,0,.16-.27.22.22,0,0,0-.27-.16l-3.89.94-2.35-1.35a.23.23,0,0,0-.3.08.22.22,0,0,0,.08.3l2.35,1.35,1.16,3.83A.22.22,0,0,0,608.9,495.56Z" transform="translate(-448.37 -292.77)" style="fill:#ededed"/><path d="M602.05,496a.21.21,0,0,0,.31,0l2.43-2.57v1.49l-2,2.1a.22.22,0,1,0,.31.3l1.67-1.76v1.16l-1.33,1.4a.22.22,0,0,0,.32.3l1-1.06v1.15l-.78.82a.22.22,0,0,0,0,.31.23.23,0,0,0,.31,0l.46-.49v1.81a.22.22,0,1,0,.44,0v-1.81l.45.49a.23.23,0,0,0,.31,0,.22.22,0,0,0,0-.31l-.77-.82v-1.15l1,1.06a.22.22,0,1,0,.32-.3l-1.32-1.4v-1.16l1.66,1.76a.22.22,0,1,0,.32-.3l-2-2.1V493.4l2.43,2.57a.21.21,0,0,0,.31,0,.22.22,0,0,0,0-.31l-2.75-2.91v-2.71a.22.22,0,0,0-.44,0v2.71L602,495.67A.21.21,0,0,0,602.05,496Z" transform="translate(-448.37 -292.77)" style="fill:#ededed"/><path d="M598.3,490.49a.22.22,0,0,0,.17.26l3.47.7-1.26.79-2.83-.57a.22.22,0,0,0-.26.17.21.21,0,0,0,.17.26l2.37.48-1,.61-1.89-.38a.22.22,0,0,0-.08.43l1.43.29-1,.61-1.11-.23a.23.23,0,0,0-.26.18.21.21,0,0,0,.17.25l.65.14-1.53.95a.22.22,0,0,0-.07.3.21.21,0,0,0,.3.07l1.53-.95-.16.64a.22.22,0,1,0,.42.11l.29-1.09,1-.61-.37,1.42a.23.23,0,0,0,.16.27.22.22,0,0,0,.27-.16l.48-1.87,1-.61-.61,2.35a.21.21,0,0,0,.16.26.22.22,0,0,0,.27-.15l.73-2.79,1.26-.79-.89,3.42a.22.22,0,1,0,.42.11l1-3.87,2.3-1.43a.22.22,0,0,0,.07-.31.22.22,0,0,0-.3-.07l-2.3,1.44-3.92-.8A.22.22,0,0,0,598.3,490.49Z" transform="translate(-448.37 -292.77)" style="fill:#ededed"/><path d="M632.38,474.71a.09.09,0,0,0-.13,0l-1,1v-.6l.79-.84a.07.07,0,0,0,0-.12.09.09,0,0,0-.12,0l-.67.71v-.47l.53-.56a.09.09,0,0,0,0-.12.11.11,0,0,0-.13,0l-.4.43v-.46l.31-.33a.11.11,0,0,0,0-.13.09.09,0,0,0-.13,0l-.18.19v-.72a.09.09,0,0,0-.18,0v.72l-.18-.19a.08.08,0,0,0-.12,0,.09.09,0,0,0,0,.13l.31.33v.46l-.4-.43a.09.09,0,0,0-.12,0,.08.08,0,0,0,0,.12l.53.56v.47l-.66-.71a.11.11,0,0,0-.13,0,.09.09,0,0,0,0,.12l.79.84v.6l-1-1a.07.07,0,0,0-.12,0,.08.08,0,0,0,0,.12l1.1,1.17v1.08a.09.09,0,1,0,.18,0V476l1.1-1.17A.09.09,0,0,0,632.38,474.71Z" transform="translate(-448.37 -292.77)" style="fill:#ededed"/><path d="M629.66,475a.09.09,0,0,0-.06.11l.46,1.34-.53-.27-.37-1.1a.1.1,0,0,0-.12,0,.08.08,0,0,0,0,.11l.31.92-.41-.22-.25-.73a.09.09,0,0,0-.11-.06.1.1,0,0,0,0,.12l.19.55-.41-.21-.15-.43A.09.09,0,0,0,628,475a.09.09,0,0,0,0,.11l.08.26-.64-.34a.1.1,0,0,0-.12,0,.09.09,0,0,0,0,.12l.64.34-.26.07a.1.1,0,0,0-.06.11c0,.05.06.08.11.06l.44-.12.4.22L628,476a.09.09,0,0,0-.06.11.08.08,0,0,0,.11.06l.74-.2.41.21-.93.26a.09.09,0,0,0-.07.11.1.1,0,0,0,.11.06l1.12-.31.52.28-1.36.38a.08.08,0,0,0-.06.11.09.09,0,0,0,.11.06l1.54-.43,1,.51a.1.1,0,0,0,.12,0,.09.09,0,0,0,0-.12l-1-.51-.51-1.51A.09.09,0,0,0,629.66,475Z" transform="translate(-448.37 -292.77)" style="fill:#ededed"/><path d="M633.92,476.88a.08.08,0,0,0-.06-.1l-1.39-.32.52-.3,1.12.25a.09.09,0,0,0,.11-.06.09.09,0,0,0-.07-.11l-.94-.21.4-.24.75.17a.08.08,0,0,0,.1-.06.09.09,0,0,0-.06-.11l-.57-.13.39-.23.44.1a.09.09,0,0,0,.11-.07.08.08,0,0,0-.07-.1l-.26-.06.63-.37a.1.1,0,0,0,0-.12.09.09,0,0,0-.12,0l-.63.37.08-.26a.09.09,0,0,0-.06-.11.09.09,0,0,0-.11.06l-.13.44-.39.23.16-.56a.09.09,0,0,0-.06-.11.08.08,0,0,0-.11.06l-.21.74-.4.24.27-.94a.11.11,0,0,0-.06-.11.09.09,0,0,0-.11.06L632.9,476l-.52.3.39-1.36a.08.08,0,0,0-.06-.11.07.07,0,0,0-.1.06l-.45,1.54-.93.55a.09.09,0,0,0,0,.12.08.08,0,0,0,.12,0l.93-.55,1.57.36A.09.09,0,0,0,633.92,476.88Z" transform="translate(-448.37 -292.77)" style="fill:#ededed"/><path d="M632.73,479.42a.09.09,0,0,0,.06-.11l-.41-1.36.52.3.33,1.11a.08.08,0,0,0,.11.05.08.08,0,0,0,.06-.1l-.28-.93.4.23.22.74a.09.09,0,0,0,.11,0,.08.08,0,0,0,.06-.11l-.17-.56.4.23.13.44a.09.09,0,0,0,.11.05.08.08,0,0,0,.06-.11l-.08-.25.63.36a.09.09,0,0,0,.12,0,.08.08,0,0,0,0-.12l-.63-.36.26-.07a.08.08,0,0,0,.07-.1.1.1,0,0,0-.11-.07l-.44.11-.4-.23.57-.14a.07.07,0,0,0,.06-.1.08.08,0,0,0-.1-.07l-.75.18-.4-.23.94-.22c.05,0,.08-.06.06-.11a.07.07,0,0,0-.1-.06l-1.13.27-.51-.3,1.37-.33a.09.09,0,0,0,.07-.11.08.08,0,0,0-.11-.06l-1.56.37-.94-.54a.09.09,0,0,0-.12,0,.1.1,0,0,0,0,.12l.95.54.46,1.53A.09.09,0,0,0,632.73,479.42Z" transform="translate(-448.37 -292.77)" style="fill:#ededed"/><path d="M630,479.59a.11.11,0,0,0,.13,0l1-1v.59l-.79.84a.09.09,0,0,0,0,.13.08.08,0,0,0,.12,0l.67-.7v.46l-.53.56a.11.11,0,0,0,0,.13.09.09,0,0,0,.13,0l.4-.42v.46l-.31.33a.09.09,0,0,0,0,.12.11.11,0,0,0,.13,0l.18-.2v.73a.09.09,0,1,0,.18,0v-.73l.18.2a.09.09,0,0,0,.12,0,.08.08,0,0,0,0-.12l-.31-.33v-.46l.4.42a.08.08,0,0,0,.12,0,.09.09,0,0,0,0-.13l-.53-.56v-.46l.66.7a.09.09,0,0,0,.13,0,.11.11,0,0,0,0-.13l-.79-.84v-.59l1,1a.09.09,0,0,0,.12,0,.08.08,0,0,0,0-.12l-1.1-1.17v-1.09a.09.09,0,0,0-.18,0v1.09l-1.1,1.17A.08.08,0,0,0,630,479.59Z" transform="translate(-448.37 -292.77)" style="fill:#ededed"/><path d="M628.48,477.39a.08.08,0,0,0,.07.1l1.39.28-.51.32-1.13-.23a.09.09,0,0,0,0,.17l1,.2-.39.24-.75-.15a.09.09,0,0,0-.11.07.09.09,0,0,0,.07.1l.57.12-.39.24-.44-.09a.09.09,0,1,0,0,.17l.26.06-.62.38a.09.09,0,0,0,0,.12.11.11,0,0,0,.13,0l.61-.39-.07.26a.09.09,0,0,0,.07.11.09.09,0,0,0,.1-.06l.12-.44.39-.24-.15.56a.09.09,0,1,0,.17.05l.2-.75.39-.24-.25.93a.09.09,0,0,0,.06.11.09.09,0,0,0,.11-.06l.3-1.12.5-.32-.36,1.38a.09.09,0,0,0,.07.1.07.07,0,0,0,.1-.06l.41-1.55.92-.58a.09.09,0,0,0,0-.12.08.08,0,0,0-.12,0l-.92.57-1.58-.32A.09.09,0,0,0,628.48,477.39Z" transform="translate(-448.37 -292.77)" style="fill:#ededed"/><path d="M606.38,420.71a.09.09,0,0,0-.13,0l-1,1v-.6l.79-.84a.07.07,0,0,0,0-.12.09.09,0,0,0-.12,0l-.67.71v-.47l.53-.56a.09.09,0,0,0,0-.12.11.11,0,0,0-.13,0l-.4.43v-.46l.31-.33a.11.11,0,0,0,0-.13.09.09,0,0,0-.13,0l-.18.19v-.72a.09.09,0,1,0-.18,0v.72l-.18-.19a.08.08,0,0,0-.12,0,.09.09,0,0,0,0,.13l.31.33v.46l-.4-.43a.09.09,0,0,0-.12,0,.08.08,0,0,0,0,.12l.53.56v.47l-.66-.71a.11.11,0,0,0-.13,0,.09.09,0,0,0,0,.12l.79.84v.6l-1-1a.07.07,0,0,0-.12,0,.08.08,0,0,0,0,.12l1.1,1.17v1.08a.09.09,0,1,0,.18,0V422l1.1-1.17A.09.09,0,0,0,606.38,420.71Z" transform="translate(-448.37 -292.77)" style="fill:#ededed"/><path d="M603.66,421a.09.09,0,0,0-.06.11l.46,1.34-.53-.27-.37-1.1a.1.1,0,0,0-.12,0,.08.08,0,0,0,0,.11l.31.92-.41-.22-.25-.73a.09.09,0,0,0-.11-.06.1.1,0,0,0,0,.12l.19.55-.41-.21-.15-.43A.09.09,0,0,0,602,421a.09.09,0,0,0,0,.11l.08.26-.64-.34a.1.1,0,0,0-.12,0,.09.09,0,0,0,0,.12l.64.34-.26.07a.1.1,0,0,0-.06.11c0,.05.06.08.11.06l.44-.12.4.22L602,422a.09.09,0,0,0-.06.11.08.08,0,0,0,.11.06l.74-.2.41.21-.93.26a.09.09,0,0,0-.07.11.1.1,0,0,0,.11.06l1.12-.31.52.28-1.36.38a.08.08,0,0,0-.06.11.09.09,0,0,0,.11.06l1.54-.43,1,.51a.1.1,0,0,0,.12,0,.09.09,0,0,0,0-.12l-1-.51-.51-1.51A.09.09,0,0,0,603.66,421Z" transform="translate(-448.37 -292.77)" style="fill:#ededed"/><path d="M607.92,422.88a.08.08,0,0,0-.06-.1l-1.39-.32.52-.3,1.12.25a.09.09,0,0,0,.11-.06.09.09,0,0,0-.07-.11l-.94-.21.4-.24.75.17a.08.08,0,0,0,.1-.06.09.09,0,0,0-.06-.11l-.57-.13.39-.23.44.1a.09.09,0,0,0,.11-.07.08.08,0,0,0-.07-.1l-.26-.06.63-.37a.1.1,0,0,0,0-.12.09.09,0,0,0-.12,0l-.63.37.08-.26a.09.09,0,0,0-.06-.11.09.09,0,0,0-.11.06l-.13.44-.39.23.16-.56a.09.09,0,0,0-.06-.11.08.08,0,0,0-.11.06l-.21.74-.4.24.27-.94a.11.11,0,0,0-.06-.11.09.09,0,0,0-.11.06L606.9,422l-.52.3.39-1.36a.08.08,0,0,0-.06-.11.07.07,0,0,0-.1.06l-.45,1.54-.93.55a.09.09,0,0,0,0,.12.08.08,0,0,0,.12,0l.93-.55,1.57.36A.09.09,0,0,0,607.92,422.88Z" transform="translate(-448.37 -292.77)" style="fill:#ededed"/><path d="M606.73,425.42a.09.09,0,0,0,.06-.11l-.41-1.36.52.3.33,1.11a.08.08,0,0,0,.11.05.08.08,0,0,0,.06-.1l-.28-.93.4.23.22.74a.09.09,0,0,0,.11,0,.08.08,0,0,0,.06-.11l-.17-.56.4.23.13.44a.09.09,0,0,0,.11.05.08.08,0,0,0,.06-.11l-.08-.25.63.36a.09.09,0,0,0,.12,0,.08.08,0,0,0,0-.12l-.63-.36.26-.07a.08.08,0,0,0,.07-.1.1.1,0,0,0-.11-.07l-.44.11-.4-.23.57-.14a.07.07,0,0,0,.06-.1.08.08,0,0,0-.1-.07l-.75.18-.4-.23.94-.22c.05,0,.08-.06.06-.11a.07.07,0,0,0-.1-.06l-1.13.27-.51-.3,1.37-.33a.09.09,0,0,0,.07-.11.08.08,0,0,0-.11-.06l-1.56.37-.94-.54a.09.09,0,0,0-.12,0,.1.1,0,0,0,0,.12l.95.54.46,1.53A.09.09,0,0,0,606.73,425.42Z" transform="translate(-448.37 -292.77)" style="fill:#ededed"/><path d="M604,425.59a.11.11,0,0,0,.13,0l1-1v.59l-.79.84a.09.09,0,0,0,0,.13.08.08,0,0,0,.12,0l.67-.7v.46l-.53.56a.11.11,0,0,0,0,.13.09.09,0,0,0,.13,0l.4-.42v.46l-.31.33a.09.09,0,0,0,0,.12.11.11,0,0,0,.13,0l.18-.2v.73a.09.09,0,1,0,.18,0v-.73l.18.2a.09.09,0,0,0,.12,0,.08.08,0,0,0,0-.12l-.31-.33v-.46l.4.42a.08.08,0,0,0,.12,0,.09.09,0,0,0,0-.13l-.53-.56v-.46l.66.7a.09.09,0,0,0,.13,0,.11.11,0,0,0,0-.13l-.79-.84v-.59l1,1a.09.09,0,0,0,.12,0,.08.08,0,0,0,0-.12l-1.1-1.17v-1.09a.09.09,0,0,0-.18,0v1.09l-1.1,1.17A.08.08,0,0,0,604,425.59Z" transform="translate(-448.37 -292.77)" style="fill:#ededed"/><path d="M602.48,423.39a.08.08,0,0,0,.07.1l1.39.28-.51.32-1.13-.23a.09.09,0,0,0,0,.17l1,.2-.39.24-.75-.15a.09.09,0,0,0-.11.07.09.09,0,0,0,.07.1l.57.12-.39.24-.44-.09a.09.09,0,1,0,0,.17l.26.06-.62.38a.09.09,0,0,0,0,.12.11.11,0,0,0,.13,0l.61-.39-.07.26a.09.09,0,0,0,.07.11.09.09,0,0,0,.1-.06l.12-.44.39-.24-.15.56a.09.09,0,1,0,.17.05l.2-.75.39-.24-.25.93a.09.09,0,0,0,.06.11.09.09,0,0,0,.11-.06l.3-1.12.5-.32-.36,1.38a.09.09,0,0,0,.07.1.07.07,0,0,0,.1-.06l.41-1.55.92-.58a.09.09,0,0,0,0-.12.08.08,0,0,0-.12,0l-.92.57-1.58-.32A.09.09,0,0,0,602.48,423.39Z" transform="translate(-448.37 -292.77)" style="fill:#ededed"/><path d="M630.93,420.55a.16.16,0,0,0-.23,0l-1.84,1.95v-1.13l1.5-1.59a.16.16,0,0,0-.24-.22l-1.26,1.33V420l1-1.06a.17.17,0,0,0-.24-.23l-.76.81v-.87l.58-.62a.17.17,0,1,0-.24-.23l-.34.36v-1.36a.17.17,0,1,0-.34,0v1.36l-.34-.36a.17.17,0,1,0-.24.23l.58.62v.87l-.76-.81a.17.17,0,0,0-.24.23l1,1.06v.88l-1.26-1.33a.16.16,0,0,0-.24.22l1.5,1.59v1.13l-1.84-1.95a.17.17,0,0,0-.24.23l2.08,2.21V425a.17.17,0,0,0,.34,0V423l2.08-2.21A.16.16,0,0,0,630.93,420.55Z" transform="translate(-448.37 -292.77)" style="fill:#ededed"/><path d="M625.78,421a.17.17,0,0,0-.1.21l.86,2.54-1-.53-.7-2.07a.16.16,0,1,0-.31.11l.59,1.73-.78-.4-.47-1.39a.16.16,0,0,0-.31.11l.35,1.05-.76-.41-.28-.81a.17.17,0,0,0-.21-.1.16.16,0,0,0-.1.21l.16.48-1.21-.64a.17.17,0,0,0-.23.07.16.16,0,0,0,.07.22l1.21.64-.48.14a.16.16,0,0,0-.12.2.18.18,0,0,0,.21.12l.82-.23.77.4-1.07.3a.15.15,0,0,0-.11.2.16.16,0,0,0,.2.12l1.41-.39.77.41-1.77.49a.16.16,0,0,0-.11.2.17.17,0,0,0,.2.12l2.11-.59,1,.53-2.59.72a.17.17,0,0,0-.11.21.16.16,0,0,0,.2.11l2.93-.81,1.81,1a.17.17,0,1,0,.16-.3L627,424l-1-2.87A.18.18,0,0,0,625.78,421Z" transform="translate(-448.37 -292.77)" style="fill:#ededed"/><path d="M633.85,424.66a.17.17,0,0,0-.12-.2l-2.62-.6,1-.57,2.13.48a.16.16,0,1,0,.08-.32L632.5,423l.75-.44,1.43.32a.16.16,0,0,0,.2-.12.17.17,0,0,0-.13-.2l-1.08-.25.75-.44.83.19a.17.17,0,0,0,.2-.13.16.16,0,0,0-.12-.2l-.49-.11L636,421a.17.17,0,0,0,.06-.23.15.15,0,0,0-.22-.06l-1.18.7.14-.49a.17.17,0,0,0-.12-.2.15.15,0,0,0-.2.11l-.24.82-.75.45.31-1.07a.16.16,0,0,0-.12-.2.15.15,0,0,0-.2.11l-.41,1.4-.75.45.51-1.77a.17.17,0,0,0-.12-.2.15.15,0,0,0-.2.11l-.61,2.1-1,.58.74-2.58a.15.15,0,0,0-.11-.2.16.16,0,0,0-.21.11l-.83,2.91-1.77,1.05a.16.16,0,0,0-.06.23.17.17,0,0,0,.23,0l1.76-1,3,.67A.16.16,0,0,0,633.85,424.66Z" transform="translate(-448.37 -292.77)" style="fill:#ededed"/><path d="M631.6,429.46a.18.18,0,0,0,.11-.21l-.78-2.57,1,.57.64,2.09a.15.15,0,0,0,.2.11.16.16,0,0,0,.11-.21l-.53-1.75.76.43.42,1.4a.17.17,0,1,0,.32-.1l-.32-1.06.76.43.24.82a.16.16,0,0,0,.21.11.15.15,0,0,0,.11-.2l-.14-.49,1.19.68a.15.15,0,0,0,.22-.06.15.15,0,0,0-.06-.22l-1.19-.68.49-.12a.16.16,0,0,0,.12-.2.17.17,0,0,0-.2-.13l-.83.21-.75-.44,1.07-.26a.17.17,0,0,0,.13-.2.16.16,0,0,0-.2-.12l-1.42.34-.76-.43,1.78-.43a.16.16,0,0,0,.12-.2.17.17,0,0,0-.2-.13l-2.12.52-1-.56,2.6-.63a.19.19,0,0,0,.13-.21.17.17,0,0,0-.2-.12l-3,.71-1.78-1a.18.18,0,0,0-.23.07.16.16,0,0,0,.06.22l1.78,1,.88,2.91A.18.18,0,0,0,631.6,429.46Z" transform="translate(-448.37 -292.77)" style="fill:#ededed"/><path d="M626.4,429.78a.17.17,0,0,0,.24,0l1.84-1.95V429l-1.5,1.59a.17.17,0,1,0,.24.23l1.26-1.33v.87l-1,1.06a.17.17,0,1,0,.24.23l.76-.8v.87l-.59.62a.17.17,0,0,0,.24.23l.35-.37v1.37a.17.17,0,0,0,.16.17.17.17,0,0,0,.17-.17v-1.37l.35.37a.17.17,0,0,0,.24-.23l-.59-.62v-.87l.76.8a.17.17,0,1,0,.24-.23l-1-1.06v-.87l1.26,1.33a.17.17,0,1,0,.24-.23l-1.5-1.59v-1.13l1.84,1.95a.17.17,0,1,0,.24-.23l-2.08-2.2v-2a.17.17,0,0,0-.17-.17.17.17,0,0,0-.16.17v2l-2.09,2.2A.17.17,0,0,0,626.4,429.78Z" transform="translate(-448.37 -292.77)" style="fill:#ededed"/><path d="M623.56,425.62a.18.18,0,0,0,.13.2l2.63.53-1,.6-2.14-.44a.16.16,0,0,0-.19.13.17.17,0,0,0,.12.2l1.8.36-.74.46-1.43-.29a.17.17,0,0,0-.07.33l1.09.22-.74.46-.84-.17a.16.16,0,0,0-.19.13.17.17,0,0,0,.13.2l.49.1-1.16.72a.16.16,0,0,0,0,.23.15.15,0,0,0,.22.05l1.17-.72-.13.48a.17.17,0,0,0,.12.21.16.16,0,0,0,.2-.12l.22-.83.73-.46-.28,1.07a.17.17,0,0,0,.33.09l.37-1.41.74-.47-.47,1.78a.16.16,0,0,0,.12.2.18.18,0,0,0,.21-.12l.55-2.11,1-.6-.68,2.59a.17.17,0,0,0,.12.21.16.16,0,0,0,.2-.12l.77-2.94,1.74-1.08a.16.16,0,0,0,.05-.23.16.16,0,0,0-.23-.05l-1.74,1.08-3-.6A.17.17,0,0,0,623.56,425.62Z" transform="translate(-448.37 -292.77)" style="fill:#ededed"/><path d="M584.06,463.19a.17.17,0,0,0-.22,0L582.17,465v-1l1.36-1.44a.16.16,0,0,0,0-.22.17.17,0,0,0-.22,0l-1.14,1.21v-.79l.91-1a.15.15,0,0,0-.22-.21l-.69.74v-.79l.53-.57a.14.14,0,0,0,0-.21.16.16,0,0,0-.22,0l-.31.34v-1.25a.15.15,0,0,0-.15-.15.15.15,0,0,0-.15.15V461l-.32-.34a.15.15,0,0,0-.22.21l.54.57v.79l-.7-.74a.14.14,0,0,0-.21,0,.15.15,0,0,0,0,.21l.92,1v.79l-1.15-1.21a.15.15,0,0,0-.21,0,.16.16,0,0,0,0,.22l1.37,1.44v1l-1.68-1.77a.15.15,0,0,0-.21,0,.16.16,0,0,0,0,.22l1.9,2v1.87a.15.15,0,0,0,.15.15.15.15,0,0,0,.15-.15v-1.87l1.89-2A.16.16,0,0,0,584.06,463.19Z" transform="translate(-448.37 -292.77)" style="fill:#ededed"/><path d="M579.38,463.61a.15.15,0,0,0-.1.19l.78,2.31-.9-.48-.64-1.88a.15.15,0,0,0-.19-.09.15.15,0,0,0-.1.19l.54,1.58-.71-.37-.42-1.26a.16.16,0,0,0-.19-.1.16.16,0,0,0-.1.2l.32,1-.7-.37-.24-.74a.16.16,0,0,0-.2-.09.14.14,0,0,0-.09.19l.15.43-1.1-.58a.15.15,0,0,0-.21.07.15.15,0,0,0,.06.2l1.1.58-.44.12a.16.16,0,0,0,.09.3l.74-.21.7.37-1,.27a.14.14,0,0,0-.1.18.15.15,0,0,0,.18.11l1.28-.36.71.37-1.61.45a.16.16,0,0,0-.11.19.15.15,0,0,0,.19.1l1.92-.53.9.48-2.35.65a.16.16,0,0,0-.1.19.15.15,0,0,0,.19.1l2.65-.73,1.65.87a.15.15,0,0,0,.21-.07.14.14,0,0,0-.07-.2l-1.65-.87-.88-2.61A.16.16,0,0,0,579.38,463.61Z" transform="translate(-448.37 -292.77)" style="fill:#ededed"/><path d="M586.71,466.93a.15.15,0,0,0-.11-.18l-2.38-.54.88-.52,1.94.44a.16.16,0,0,0,.18-.12.15.15,0,0,0-.11-.18l-1.63-.37.69-.4,1.29.29a.15.15,0,0,0,.07-.29l-1-.23.68-.4.75.17a.15.15,0,0,0,.19-.11.16.16,0,0,0-.12-.18l-.44-.1,1.07-.64a.15.15,0,0,0,.05-.2.16.16,0,0,0-.21-.06l-1.07.64.13-.44a.16.16,0,0,0-.11-.19.14.14,0,0,0-.18.1l-.22.75-.68.4.28-1a.15.15,0,0,0-.29-.09L586,464.8l-.68.4.46-1.6a.16.16,0,0,0-.11-.19.15.15,0,0,0-.18.11l-.55,1.91-.89.52.68-2.34a.16.16,0,0,0-.11-.19.14.14,0,0,0-.18.1l-.76,2.65-1.61.95a.15.15,0,0,0-.05.21.14.14,0,0,0,.2.05l1.61-.95,2.69.61A.15.15,0,0,0,586.71,466.93Z" transform="translate(-448.37 -292.77)" style="fill:#ededed"/><path d="M584.66,471.3a.15.15,0,0,0,.1-.19l-.7-2.34.89.51.57,1.91a.16.16,0,0,0,.19.1.15.15,0,0,0,.1-.19l-.48-1.6.69.4.38,1.27a.16.16,0,0,0,.19.1.15.15,0,0,0,.1-.19l-.29-1,.69.39.22.74a.15.15,0,0,0,.19.1.14.14,0,0,0,.1-.18l-.13-.44,1.08.62a.16.16,0,0,0,.21-.06.16.16,0,0,0-.06-.21l-1.08-.61.45-.11a.15.15,0,0,0,.11-.18.15.15,0,0,0-.19-.11l-.75.18-.69-.4,1-.23a.15.15,0,0,0-.07-.3l-1.29.32-.69-.4,1.62-.39a.15.15,0,0,0-.07-.3l-1.93.47-.89-.51,2.37-.57a.15.15,0,0,0-.07-.3l-2.68.65-1.62-.93a.16.16,0,0,0-.21.06.15.15,0,0,0,.06.21l1.61.92.8,2.64A.16.16,0,0,0,584.66,471.3Z" transform="translate(-448.37 -292.77)" style="fill:#ededed"/><path d="M579.94,471.59a.15.15,0,0,0,.21,0l1.67-1.77v1l-1.36,1.44a.16.16,0,0,0,0,.22.17.17,0,0,0,.22,0l1.14-1.21v.79l-.91,1a.15.15,0,0,0,0,.21.14.14,0,0,0,.21,0l.69-.74v.79l-.53.57a.15.15,0,0,0,.22.21l.31-.34V475a.16.16,0,0,0,.16.15.15.15,0,0,0,.15-.15v-1.25l.31.34a.14.14,0,0,0,.21,0,.14.14,0,0,0,0-.21l-.53-.57v-.79l.69.74A.15.15,0,0,0,583,473l-.91-1v-.79l1.14,1.21a.17.17,0,0,0,.22,0,.16.16,0,0,0,0-.22l-1.36-1.44v-1l1.67,1.77a.17.17,0,0,0,.22,0,.16.16,0,0,0,0-.22l-1.89-2V467.5a.15.15,0,0,0-.15-.15.16.16,0,0,0-.16.15v1.87l-1.89,2A.16.16,0,0,0,579.94,471.59Z" transform="translate(-448.37 -292.77)" style="fill:#ededed"/><path d="M577.36,467.81a.13.13,0,0,0,.11.17l2.39.49L579,469l-2-.39a.13.13,0,0,0-.17.11.14.14,0,0,0,.11.18l1.64.33-.68.42-1.3-.26a.16.16,0,0,0-.18.12.16.16,0,0,0,.12.18l1,.2-.67.42-.76-.16a.15.15,0,0,0-.18.12.15.15,0,0,0,.12.18l.44.09-1,.66a.16.16,0,0,0-.05.21.15.15,0,0,0,.21,0l1-.65-.11.44a.15.15,0,1,0,.29.07l.2-.75.67-.42-.26,1a.15.15,0,0,0,.11.18.15.15,0,0,0,.19-.1l.33-1.29.68-.42-.42,1.61a.15.15,0,0,0,.1.19.16.16,0,0,0,.19-.11l.5-1.92.87-.55-.61,2.36a.15.15,0,0,0,.1.19.16.16,0,0,0,.19-.11l.7-2.67,1.58-1a.15.15,0,0,0,0-.2.15.15,0,0,0-.21-.05l-1.58,1-2.71-.55A.14.14,0,0,0,577.36,467.81Z" transform="translate(-448.37 -292.77)" style="fill:#ededed"/></svg>